<svg xmlns="http://www.w3.org/2000/svg" viewBox="0 0 32 32">
  <rect width="32" height="32" rx="7" fill="#0a0a0a"/>
  <g fill="#6366f1">
    <rect x="6" y="6" width="6" height="6" rx="1.2"/>
    <rect x="20" y="6" width="6" height="6" rx="1.2"/>
    <rect x="6" y="20" width="6" height="6" rx="1.2"/>
    <rect x="14" y="6" width="2" height="2"/>
    <rect x="14" y="10" width="2" height="2"/>
    <rect x="14" y="14" width="2" height="2"/>
    <rect x="18" y="14" width="2" height="2"/>
    <rect x="22" y="14" width="2" height="2"/>
    <rect x="14" y="18" width="2" height="2"/>
    <rect x="14" y="22" width="2" height="2"/>
    <rect x="18" y="18" width="2" height="2"/>
    <rect x="22" y="18" width="2" height="2"/>
    <rect x="18" y="22" width="2" height="2"/>
    <rect x="22" y="22" width="2" height="2"/>
  </g>
  <g fill="#ffffff">
    <rect x="8" y="8" width="2" height="2"/>
    <rect x="22" y="8" width="2" height="2"/>
    <rect x="8" y="22" width="2" height="2"/>
  </g>
</svg>
